<svg version="1.1" xmlns="http://www.w3.org/2000/svg" xmlns:xlink="http://www.w3.org/1999/xlink" width="19.9736" height="49.16507" viewBox="0,0,19.9736,49.16507"><g transform="translate(-230.02458,-156.04247)"><g data-paper-data="{&quot;isPaintingLayer&quot;:true}" fill-rule="nonzero" stroke-linecap="butt" stroke-linejoin="miter" stroke-miterlimit="10" stroke-dasharray="" stroke-dashoffset="0" style="mix-blend-mode: normal"><path d="M233.11494,203.95753v-17.66091h13.85064v17.66091z" fill="none" stroke="#000000" stroke-width="2.5"/><path d="M241.01517,156.19071c0.54385,0.41168 0.15538,0.98803 0.15538,0.98803l-0.30773,0.44878c-0.32993,0.62795 -0.59226,1.25216 -0.84704,1.91782c-0.4261,2.49802 0.75218,4.11258 1.2608,6.42689c0.55391,2.52042 -0.40981,4.8705 -0.61088,7.31266c0,0 -0.06051,0.70538 -0.7261,0.64125c-0.66559,-0.06412 -0.60509,-0.7695 -0.60509,-0.7695c0.19952,-2.24836 1.17739,-4.53765 0.64231,-6.85377c-0.59844,-2.5904 -1.72965,-4.33948 -1.24559,-7.14926c0.28759,-0.77067 0.584,-1.48933 0.96313,-2.21405l0.3885,-0.58419c0,0 0.38847,-0.57635 0.93232,-0.16467z" fill="#909090" stroke="none" stroke-width="0.5"/><path d="M233.47968,186.81488l-1.38106,-0.02311l7.92949,-14.7283l7.87328,14.7283l-2.0012,-0.01992" fill="none" stroke="#000000" stroke-width="2.5"/></g></g></svg>